<?xml version="1.0" encoding="utf-8"?>
<!-- Generator: Adobe Illustrator 17.1.0, SVG Export Plug-In . SVG Version: 6.00 Build 0)  -->
<!DOCTYPE svg PUBLIC "-//W3C//DTD SVG 1.1//EN" "http://www.w3.org/Graphics/SVG/1.1/DTD/svg11.dtd">
<svg version="1.1" id="Layer_1" xmlns="http://www.w3.org/2000/svg" xmlns:xlink="http://www.w3.org/1999/xlink" x="0px" y="0px"
	 viewBox="0 0 26.9 28" enable-background="new 0 0 26.9 28" xml:space="preserve">
<g>
	<defs>
		<rect id="SVGID_1_" x="0" y="0" width="26.9" height="28"/>
	</defs>
	<clipPath id="SVGID_2_">
		<use xlink:href="#SVGID_1_"  overflow="visible"/>
	</clipPath>
	<path clip-path="url(#SVGID_2_)" fill="#FFFFFF" d="M24.5,27H2.4C1.6,27,1,26.3,1,25.5v-23C1,1.7,1.6,1,2.4,1h22.1
		c0.8,0,1.4,0.7,1.4,1.5v23C25.9,26.3,25.3,27,24.5,27"/>
	<path clip-path="url(#SVGID_2_)" fill="none" stroke="#000000" stroke-width="2" stroke-miterlimit="10" d="M24.5,27H2.4
		C1.6,27,1,26.3,1,25.5v-23C1,1.7,1.6,1,2.4,1h22.1c0.8,0,1.4,0.7,1.4,1.5v23C25.9,26.3,25.3,27,24.5,27z"/>
	<path clip-path="url(#SVGID_2_)" d="M15.1,27.6h4V17.1h3.4l0.6-4.1h-3.8c0,0-0.3-3.9,0.5-4.3c0,0,0.2-0.5,3.4-0.4V4.7
		c0,0-4.4-0.8-6.2,0.9c0,0-2.2,1-1.8,7.4l-3.4,0v4.2L15,17L15.1,27.6z"/>
</g>
</svg>
