<?xml version="1.0" encoding="utf-8"?>
<!-- Generator: Adobe Illustrator 17.1.0, SVG Export Plug-In . SVG Version: 6.00 Build 0)  -->
<!DOCTYPE svg PUBLIC "-//W3C//DTD SVG 1.1//EN" "http://www.w3.org/Graphics/SVG/1.1/DTD/svg11.dtd">
<svg version="1.1" id="Layer_1" xmlns="http://www.w3.org/2000/svg" xmlns:xlink="http://www.w3.org/1999/xlink" x="0px" y="0px"
	 viewBox="768.8 627.5 663.8 413.7" enable-background="new 768.8 627.5 663.8 413.7" xml:space="preserve">
<g>
	<rect x="790" y="701.9" fill="none" width="612" height="271.1"/>
	<path fill="#EEC8CF" d="M837.8,862.7c-3.1-5.3-9.2-8.8-14.9-10.1c-4.4-1.3-5.3,0.4-8.8,1.8c-3.5,0.9-6.6,0.9-10.5,0.9
		c-3.1,0-6.2-0.4-8.8,1.8c-6.6,4.8-0.4,7.5,0.9,11.9c1.8,6.2-7.5,11-4.8,18.5c3.1,7.9,14.9,7.5,17.1,14.9c2.2,7.5-9.2,11-11,17.6
		c-0.9,2.6-0.4,7.5,0.4,9.7c1.3,5.7,3.1,4.4,7.5,6.2c7.9,3.5,2.6,11.9,12.7,14.1c2.2,0.4,3.5,0,4.8-0.4c0.9-0.4,1.8-0.4,3.1-0.4
		c1.8,0,4.4,0.9,6.6,1.3c1.3,0,3.1-0.4,4.8-0.9c1.8-0.4,3.1-0.9,4.4-0.9c5.7,0.9,0.9,0.4,0.9,4.4c0,4.8,2.6,9.7,8.8,11.9
		c4.4,1.3,9.7,0.4,13.6,1.3c6.2,0.9,11.4,1.8,17.6,0.9c4.8-0.4,11.4,0.4,15.8-2.2c1.3-0.9,1.8-3.1,3.5-4c0.9-0.4,2.6-0.4,3.1-0.9
		c0.4-0.4,0.9,0,1.3,0c0.9,0,1.3,0.4,2.2-0.4c1.8-2.2-1.3-2.6-1.3-4.4c0-5.7,0-7.5-4.4-12.3c8.8,0,22,2.2,25-7.9
		c2.2-7-1.8-6.6-5.7-10.1c-4-3.5-7.5-6.6-11.4-10.1c-6.2-5.7-9.7-13.2-14.1-19.8c-6.6-10.1-16.7-18.9-27.7-24.2
		c-11-5.3-22.4-7.9-33.4-9.7L837.8,862.7z"/>
	<g>
		<defs>
			<rect id="SVGID_1_" x="790" y="701.9" width="612" height="271.1"/>
		</defs>
		<clipPath id="SVGID_2_">
			<use xlink:href="#SVGID_1_"  overflow="visible"/>
		</clipPath>
		<path clip-path="url(#SVGID_2_)" fill="#EEC8CF" d="M863.8,913.2c-7,7.9-18-11.9-18.5-17.6c-5.7-0.4-9.2-3.1-11.4-8.3
			c-2.6-6.2,0.9-11,0-16.7c-0.4-4.8-6.6-7.9-7.5-14.1c-0.9-6.2,0.4-11,5.7-14.5c1.8-1.3,4-1.3,5.7-3.1c2.6-2.2,2.6-5.7,4.4-8.3
			s5.7-6.6,9.2-6.6c4-0.4,5.3,3.1,8.3,3.5c2.2,0,3.5,0,5.3-0.4c3.1-0.4,5.7-0.9,9.2,0.9c4.8,2.6,9.7,4.8,12.3,11
			c4.4-1.8,7.5-1.3,11.4,1.8c2.2-6.2,6.2-2.6,9.2,0.4c0,0,2.6,2.6,3.1,2.6c0.9,0.4,3.5,0.9,4.4,1.8c2.2,1.3,3.1,3.5,4.8,4.8
			c1.3,1.3,5.3,1.8,6.2,2.6c0.9,0.9,0.9,3.1,1.8,4c1.3,1.3,3.1,1.8,4.4,3.1c4.8,4.4,6.6,11.9,6.2,18.5c-0.4,4.8-4.4,18.5,4.4,18
			c-0.4,0.9-0.4,3.1-0.9,4.4c9.7,2.2-5.7,16.7-9.7,18.5c-9.2,4-15.4,7-25.9,6.6c-7.5-0.4-14.9,0-21.5-3.5c-4-2.2-21.5-7.9-21.1-11.4
			L863.8,913.2z"/>
	</g>
	<g>
		<defs>
			<rect id="SVGID_3_" x="790" y="701.9" width="612" height="271.1"/>
		</defs>
		<clipPath id="SVGID_4_">
			<use xlink:href="#SVGID_3_"  overflow="visible"/>
		</clipPath>
		<path clip-path="url(#SVGID_4_)" fill="#A51D36" d="M867.7,861.8c1.3,4.8,0.4,11-2.6,14.9c3.5,3.1,8.8,4.8,11,10.1
			c0.9,2.2,0.4,5.3,1.8,7.5c1.3,2.6,4,3.5,5.3,6.2c2.6,5.7-0.4,8.3,5.3,10.1c5.3,1.8,10.1,1.8,14.9,4.4c2.2-3.5,10.1-8.3,7-12.7
			c-2.6-4-9.2-1.8-8.8-9.7c0.4-4,3.5-5.3,4.4-8.3c1.8-5.3,0-3.1-3.1-5.3c-0.4,0-0.9,0-0.9,0.4c-0.4,0.4-1.3,0.9-1.8,0
			c-1.3-1.3,0.4-3.1,0-4.4c-0.4-3.1,0.4-5.7-1.3-8.3c-0.4,0.4-1.8,0.4-2.2,0.9c-4.4-7.5-5.7-1.8-10.5,1.8c-4.8,3.1-10.5,1.8-8.3-4.8
			c-2.6,6.6-8.3,4-8.8-1.3L867.7,861.8z"/>
	</g>
	<g>
		<defs>
			<rect id="SVGID_5_" x="790" y="701.9" width="612" height="271.1"/>
		</defs>
		<clipPath id="SVGID_6_">
			<use xlink:href="#SVGID_5_"  overflow="visible"/>
		</clipPath>
		<path clip-path="url(#SVGID_6_)" fill="#EEC8CF" d="M866,862.2c1.3,5.3,0.4,10.1-2.6,14.5c-0.4,0.4,0,0.9,0.4,1.3
			c5.3,4,10.5,6.2,11.4,13.2c0.9,5.7,5.7,7.5,7,12.7c0.9,3.1,0,5.3,3.1,7c4.8,3.1,11.9,2.6,17.1,4.8c0.9,0.4,2.2-0.4,3.1-0.9
			c2.6-4,9.7-7.9,7.5-13.2c-0.9-1.8-2.6-2.6-4.4-3.1c-6.2-2.2-4.8-7-1.8-11.4c1.8-2.6,4-7-0.4-8.3c-1.8-0.4-2.6-1.8-4.8-0.4
			c2.2-1.3,0-10.5-0.4-12.3c-0.4-0.9-1.8-0.9-2.6-0.4c-0.9,0.4-1.3,0.9-2.2,0.9c0.9,0,1.8,0,2.6,0c-1.8-2.6-3.5-4.8-6.6-4
			c-1.3,0.4-2.2,1.3-3.1,1.8c-1.3,1.3-2.6,2.6-4,3.5c-5.7,4.4-5.7-1.3-5.3-4.4c0.4-1.8-3.1-0.9-3.5,0c-2.6,5.7-4.8,0-5.3-1.8
			c-0.4-1.3-4-0.4-4,0.9c1.8,7.5,9.2,7.5,12.7,0.9c-1.3,0-2.6,0-3.5,0c-0.9,4,0,7.9,4.8,7.5c2.6,0,4.4-0.9,6.6-2.2
			c3.5-1.8,4.4-6.6,7.9-1.8c0.4,0.9,1.8,0.4,2.6,0c0.9-0.4,1.3-0.4,2.2-0.9c-0.9,0-1.8-0.4-2.6-0.4c1.3,2.2,0.9,3.1,1.3,6.2
			c0-0.9-0.4,4.8-0.4,5.3c0.4,1.8,0.9,2.6,3.1,2.6c0.4,0,0.9,0,1.3,0c0.9,0,1.3,0,2.2,0.4c3.1,1.3-1.8,6.6-3.1,8.3
			c-2.6,3.5-1.3,8.3,2.6,10.5c3.1,1.8,7.5,2.2,4.8,7c-1.8,3.1-4.8,5.3-6.6,7.9c0.9-0.4,1.8-0.9,3.1-0.9c-4.8-1.8-17.6-2.2-18.5-8.3
			c-0.4-1.8-0.4-4-1.3-5.7c-2.2-3.5-5.3-5.3-5.7-9.7c-0.9-6.2-4.8-9.2-9.7-12.3c-2.6-1.8-0.4-4,0.4-6.2c1.3-3.1,0.9-7,0-10.1
			C869,860,865.5,860.9,866,862.2"/>
	</g>
	<g>
		<defs>
			<rect id="SVGID_7_" x="790" y="701.9" width="612" height="271.1"/>
		</defs>
		<clipPath id="SVGID_8_">
			<use xlink:href="#SVGID_7_"  overflow="visible"/>
		</clipPath>
		<path clip-path="url(#SVGID_8_)" fill="#F7AEBE" d="M826,853.9c1.8,4,3.5,10.1,2.6,14.5c-3.1-2.6-5.7-4.8-9.7-7
			c-3.1-1.8-5.3-3.1-7-6.2c2.6-0.4,4.4-2.2,7-2.2C821.6,852.6,823.8,853.5,826,853.9C826,854.3,826.4,853.9,826,853.9"/>
	</g>
	<g>
		<defs>
			<rect id="SVGID_9_" x="790" y="701.9" width="612" height="271.1"/>
		</defs>
		<clipPath id="SVGID_10_">
			<use xlink:href="#SVGID_9_"  overflow="visible"/>
		</clipPath>
		<path clip-path="url(#SVGID_10_)" fill="#F7AEBE" d="M795.2,874.1c2.6,2.6,4.8,6.6,7.5,9.7c-3.5-1.3-7-3.5-10.5-4.4
			c0.9-1.8,3.1-3.5,4-4.8"/>
	</g>
	<g>
		<defs>
			<rect id="SVGID_11_" x="790" y="701.9" width="612" height="271.1"/>
		</defs>
		<clipPath id="SVGID_12_">
			<use xlink:href="#SVGID_11_"  overflow="visible"/>
		</clipPath>
		<path clip-path="url(#SVGID_12_)" fill="#F5DFE4" d="M867.3,857.8c0,3.1,0,21.5-7,16.7c-5.3-3.5,5.7-14.1,7.5-17.1"/>
	</g>
	<g>
		<defs>
			<rect id="SVGID_13_" x="790" y="701.9" width="612" height="271.1"/>
		</defs>
		<clipPath id="SVGID_14_">
			<use xlink:href="#SVGID_13_"  overflow="visible"/>
		</clipPath>
		<path clip-path="url(#SVGID_14_)" fill="#F5DFE4" d="M871.2,858.7c0.9-1.8,2.2-2.6,4-2.2c0.9,3.5-3.5,5.3-4.4,2.6"/>
	</g>
	<g>
		<defs>
			<rect id="SVGID_15_" x="790" y="701.9" width="612" height="271.1"/>
		</defs>
		<clipPath id="SVGID_16_">
			<use xlink:href="#SVGID_15_"  overflow="visible"/>
		</clipPath>
		<path clip-path="url(#SVGID_16_)" fill="#F27497" d="M869.9,829.3c0.9,0,4.4-1.3,2.6-1.3C871.7,828,868.2,829.3,869.9,829.3"/>
	</g>
	<g>
		<defs>
			<rect id="SVGID_17_" x="790" y="701.9" width="612" height="271.1"/>
		</defs>
		<clipPath id="SVGID_18_">
			<use xlink:href="#SVGID_17_"  overflow="visible"/>
		</clipPath>
		<path clip-path="url(#SVGID_18_)" fill="#F5DBE0" d="M870.4,916.3c0.4,0.4,1.3,1.3,2.2,1.3c0,0,0.4,0,0.4-0.4
			C872.6,917.2,871.2,916.7,870.4,916.3"/>
	</g>
	<g>
		<defs>
			<rect id="SVGID_19_" x="790" y="701.9" width="612" height="271.1"/>
		</defs>
		<clipPath id="SVGID_20_">
			<use xlink:href="#SVGID_19_"  overflow="visible"/>
		</clipPath>
		<path clip-path="url(#SVGID_20_)" fill="#F5DBE0" d="M867.7,826.7c-2.2,0-4.8,1.3-7.5,1.3c-2.6,6.2,3.1,11.9,4.4,17.6
			c-1.3-2.2-2.2-2.6-3.5-2.6c-3.1,0-4.8,7-7,9.2c-4,5.3-9.7,7.9-11.9,14.9c-3.5,10.5,1.8,23.3,13.2,24.6c-0.4,7.5,5.7,9.2,9.7,14.5
			c2.2,3.1,2.2,7.9,4.8,10.5c0.9,0.4,1.8,0.9,2.6,1.3c4.8-3.1,1.8-7,4.8-11c1.3,1.3,2.2,1.8,2.6,1.8c0.9,0,1.3-0.9,1.8-2.2
			c0-0.9-0.4-1.8-0.4-2.6c-1.3-5.3-6.6-7.5-7-12.7c-0.9-5.7-4.4-8.3-8.8-11c-0.4,0-0.9,0-1.3,0c-0.4,0-0.9,0-1.8,0
			c-2.2,0-4-0.4-5.7-2.2c-5.7-6.2,2.6-18.9,6.6-24.2c2.6-3.5,7.9-8.3,9.2-12.3c1.3-4.4-1.8-8.3-2.2-12.7c-0.4,0-0.9,0.4-1.3,0.4
			c-1.3,0,0-0.4,0.9-0.9C869.9,827.1,868.6,826.7,867.7,826.7"/>
	</g>
	<g>
		<defs>
			<rect id="SVGID_21_" x="790" y="701.9" width="612" height="271.1"/>
		</defs>
		<clipPath id="SVGID_22_">
			<use xlink:href="#SVGID_21_"  overflow="visible"/>
		</clipPath>
		<path clip-path="url(#SVGID_22_)" fill="#F5DBE0" d="M866.8,880.3C866.4,880.3,866.4,880.3,866.8,880.3c4,2.6,7.5,5.3,8.3,11
			s5.7,7.5,7,12.7c0.4,0.9,0.4,1.8,0.4,2.6c0.4-1.3,0.4-3.1,0-4.4c-0.9-4.8-3.1-6.6-5.3-11c-2.2-4.4-2.6-8.8-7.9-10.5
			C868.6,880.3,867.7,880.3,866.8,880.3"/>
	</g>
	<g>
		<defs>
			<rect id="SVGID_23_" x="790" y="701.9" width="612" height="271.1"/>
		</defs>
		<clipPath id="SVGID_24_">
			<use xlink:href="#SVGID_23_"  overflow="visible"/>
		</clipPath>
		<path clip-path="url(#SVGID_24_)" fill="#F5DBE0" d="M871.7,828.8C871.7,828.8,871.2,828.8,871.7,828.8L871.7,828.8L871.7,828.8"
			/>
	</g>
	<g>
		<defs>
			<rect id="SVGID_25_" x="790" y="701.9" width="612" height="271.1"/>
		</defs>
		<clipPath id="SVGID_26_">
			<use xlink:href="#SVGID_25_"  overflow="visible"/>
		</clipPath>
		<path clip-path="url(#SVGID_26_)" fill="#F4D2D8" d="M870.8,828c-1.3,0.4-2.2,0.9-0.9,0.9c0.4,0,0.9,0,1.3-0.4
			C871.2,828.8,871.2,828.4,870.8,828l0.4,0.4l0,0C871.2,828.4,871.2,828.4,870.8,828"/>
	</g>
	<g>
		<defs>
			<rect id="SVGID_27_" x="790" y="701.9" width="612" height="271.1"/>
		</defs>
		<clipPath id="SVGID_28_">
			<use xlink:href="#SVGID_27_"  overflow="visible"/>
		</clipPath>
		<path clip-path="url(#SVGID_28_)" fill="#F5DFE4" d="M847.1,888.6c-4.4,0-4.8-4.8-7.9-6.6c-1.8,4.4,2.2,10.1,4.8,13.2
			c3.5,4,8.3,10.1,12.7,13.2c2.2-4.8,0.4-7.5-2.2-11.4c-1.8-2.6-8.3-8.3-7.9-10.5"/>
	</g>
	<g>
		<defs>
			<rect id="SVGID_29_" x="790" y="701.9" width="612" height="271.1"/>
		</defs>
		<clipPath id="SVGID_30_">
			<use xlink:href="#SVGID_29_"  overflow="visible"/>
		</clipPath>
		<path clip-path="url(#SVGID_30_)" fill="#EF9BAC" d="M832.6,878.1c5.3,6.6,4,15.8,11.4,21.5c-5.7-2.6-11.9-1.8-18-2.6
			c-7.9-0.9-12.7-3.5-19.3-7.5c4.8,0,8.3,1.8,13.2,3.1c-0.4-0.9-1.3-2.2-1.8-3.1c2.2,0.9,4.4,2.6,7,3.1c-0.9-3.5-2.6-7.5-4.4-10.5
			c2.6,2.2,4.8,4.8,7.5,7c0-3.5-2.2-7.5-4.4-10.5c3.1,2.6,6.2,5.3,8.3,8.8c1.3-4.4-0.9-9.7-2.2-14.1c1.8,3.1,4,6.2,5.7,8.8"/>
	</g>
	<g>
		<defs>
			<rect id="SVGID_31_" x="790" y="701.9" width="612" height="271.1"/>
		</defs>
		<clipPath id="SVGID_32_">
			<use xlink:href="#SVGID_31_"  overflow="visible"/>
		</clipPath>
		<path clip-path="url(#SVGID_32_)" fill="#F27497" d="M920.9,923.7c-3.5,2.2-4.4,3.1-8.3,2.2c-1.3-0.4-3.1-2.2-4.8-2.2
			c-3.1,0-4.8,2.2-7.5,3.5c-7.9,3.1-14.9,0-22.4-3.1c4.4,3.1,13.2,10.5,10.5,16.3c-1.3,4-5.3,1.8-3.5,7c1.3,4,6.6,4,9.2,6.2
			c3.5,3.1,7,11.9,14.1,6.2c4-3.5-1.3-11.9-2.6-16.7c7,4,18,6.2,23.3-2.6c1.3-2.2,4-9.7,2.6-12.3c-1.3-2.6-3.5-2.2-5.7-3.1
			c-1.3-0.4-6.2-0.9-3.5-1.8"/>
	</g>
	<g>
		<defs>
			<rect id="SVGID_33_" x="790" y="701.9" width="612" height="271.1"/>
		</defs>
		<clipPath id="SVGID_34_">
			<use xlink:href="#SVGID_33_"  overflow="visible"/>
		</clipPath>
		<path clip-path="url(#SVGID_34_)" fill="#F27497" d="M922.6,850.4c-3.1,2.2-8.8,6.6-11,9.7c4.8,2.6,12.3,0.9,16.7-1.8
			c-2.2-2.6-2.6-7.9-6.2-8.3"/>
	</g>
	<g>
		<defs>
			<rect id="SVGID_35_" x="790" y="701.9" width="612" height="271.1"/>
		</defs>
		<clipPath id="SVGID_36_">
			<use xlink:href="#SVGID_35_"  overflow="visible"/>
		</clipPath>
		<path clip-path="url(#SVGID_36_)" fill="#F27497" d="M938.5,885.5c-10.1,0.4,2.2,10.5,6.2,11.9c-0.4,0.9-0.9,2.2-1.8,3.1
			c7.5,5.3-13.6,26.4-22.8,22.8c1.3-3.5,2.2-7.5,4-11c1.3-3.1,4.8-6.2,5.7-9.7c0.9-3.5-2.2-6.6-0.9-10.1c1.3-3.5,6.2-7,9.7-5.7"/>
	</g>
	<g>
		<defs>
			<rect id="SVGID_37_" x="790" y="701.9" width="612" height="271.1"/>
		</defs>
		<clipPath id="SVGID_38_">
			<use xlink:href="#SVGID_37_"  overflow="visible"/>
		</clipPath>
		<path clip-path="url(#SVGID_38_)" fill="#EF9BAC" d="M917.8,873.2c2.6,7.5,7.5,7.5,3.1,15.8c3.1,1.3,5.7,4.4,6.2,8.3
			c3.1,0.4,5.7,1.8,7.9,3.5c0.9-2.6,2.2-4.8,4-6.6c0.4,0,0.9,0.4,1.3,0.9c-0.9-8.3,1.8-21.1-4.8-27.2c-4.8,3.5-11,4.4-17.1,5.7"/>
	</g>
	<g>
		<defs>
			<rect id="SVGID_39_" x="790" y="701.9" width="612" height="271.1"/>
		</defs>
		<clipPath id="SVGID_40_">
			<use xlink:href="#SVGID_39_"  overflow="visible"/>
		</clipPath>
		<path clip-path="url(#SVGID_40_)" fill="#EF9BAC" d="M849.3,920.7c-0.9,3.1-1.8,5.3-4,7.9c-2.6,2.6-5.3,3.5-5.3,7.9
			c0.4,4,4.4,5.3,4.8,9.2c0.4,3.5-2.6,6.2-3.1,10.1c-1.8,18,22.4,14.9,34.3,16.7c8.8,1.3,15.8,0.9,22-5.7c5.3-5.7,4.8-12.3-1.8-17.1
			c-2.2-1.8-7-1.8-7.5-5.3c-0.4-2.2,2.6-6.2,2.6-9.2c-0.9-6.2-7.5-9.7-12.7-11.4c-4.8-1.8-8.8-0.4-14.1-0.4
			c-8.8-0.4-11-7.5-17.6-11.4c1.8,3.5,0.9,7.9,2.2,11.4"/>
	</g>
	<g>
		<defs>
			<rect id="SVGID_41_" x="790" y="701.9" width="612" height="271.1"/>
		</defs>
		<clipPath id="SVGID_42_">
			<use xlink:href="#SVGID_41_"  overflow="visible"/>
		</clipPath>
		<path clip-path="url(#SVGID_42_)" fill="#F8BACA" d="M837.4,882c-0.9,5.7,2.6,10.5,5.7,14.9c3.5,4,7.5,10.1,12.3,12.7
			c0.4,0.4,2.6-0.4,2.2-0.9c-4-2.2-6.6-6.6-10.1-10.1c-4.4-4.4-9.2-10.5-7.9-17.1C840,880.7,837.8,881.1,837.4,882"/>
	</g>
	<g>
		<defs>
			<rect id="SVGID_43_" x="790" y="701.9" width="612" height="271.1"/>
		</defs>
		<clipPath id="SVGID_44_">
			<use xlink:href="#SVGID_43_"  overflow="visible"/>
		</clipPath>
		<path clip-path="url(#SVGID_44_)" fill="#F27497" d="M855,892.1c0.4,0,2.6-0.9,1.3-0.9C855.9,891.2,854.1,892.1,855,892.1"/>
	</g>
	<g>
		<defs>
			<rect id="SVGID_45_" x="790" y="701.9" width="612" height="271.1"/>
		</defs>
		<clipPath id="SVGID_46_">
			<use xlink:href="#SVGID_45_"  overflow="visible"/>
		</clipPath>
		<path clip-path="url(#SVGID_46_)" fill="#F8BACA" d="M857.2,842.9c-1.8,4.8-6.2,10.5-9.2,14.1c-3.1,4-7,6.2-8.8,10.5
			c-1.8,4.4-1.3,9.7,0.4,14.1c2.6,5.7,7.9,7.5,12.7,10.1c1.8,0.9,2.6,4.8,3.5,6.6s3.1,3.1,4.4,4.8c3.1,3.5,4.4,7.5,7,11.4
			c2.2,4,6.2,4.8,9.2,1.3c0.9-0.9-2.6-0.4-3.5,0.4c0,0-7-11.9-7.9-13.2c-2.6-3.5-5.7-6.2-7.5-10.5c-1.3-3.5-5.7-4.4-8.8-6.2
			c-9.2-5.7-8.3-18.9-1.8-25.9c5.3-5.3,11.4-11.4,13.6-18.5C861.6,841.6,857.6,842,857.2,842.9"/>
	</g>
	<g>
		<defs>
			<rect id="SVGID_47_" x="790" y="701.9" width="612" height="271.1"/>
		</defs>
		<clipPath id="SVGID_48_">
			<use xlink:href="#SVGID_47_"  overflow="visible"/>
		</clipPath>
		<path clip-path="url(#SVGID_48_)" fill="#F8BACA" d="M897.2,869.3c0.9,3.1-1.8,10.5,1.8,11.9c1.8,0.4,5.3-2.2,5.3,1.3
			c0,1.8-3.1,4.4-3.5,6.6c-0.4,1.8,0,4,0,5.7c0.9,3.5,2.6,4.4,5.3,6.6c3.1,3.1,0,8.3-2.6,11.4c5.7,2.6,10.5,14.9,19.3,11
			c-4.8-8.8,8.3-14.9,8.8-23.3c0-4-2.6-4.4-4.4-7c-0.9-1.3-0.9-3.1-1.3-4c-0.4-1.3-2.2-2.2-2.6-3.1c-1.3-2.6,0-4.4,0-7
			c0-2.6-1.3-5.7-2.2-7.9c2.6-0.4,5.3,0,8.3-0.9c2.6-0.9,4.8-2.2,7.5-2.6c0.4-3.1-1.8-5.7-3.5-7.9c-2.2-2.6-3.1-2.6-6.2-1.3
			c-4.8,1.3-10.1,2.2-14.9,0.9c2.6-2.2,8.8-2.6,9.7-7c0.9-2.6-0.9-2.2-2.6-3.5c-2.2-1.3-2.6-4-4.8-5.3c-1.8-1.3-3.5-1.3-5.3-3.5
			c-1.8-1.8-2.6-3.5-4.8-4.4c-4.4-2.2-6.6,1.8-7.9,5.3c-1.3,2.6-3.5,9.2-7,10.1c-1.3,0.4-3.1-1.3-4.8-0.9c-1.8,0.4-2.6,3.1-3.1,4.8
			c-0.4,1.8,0.4,3.5,0.4,4.8c-0.4,2.6-3.1,3.5-3.5,5.7c-1.8,5.3,4.4,5.3,7.5,3.5c1.8-0.9,5.7-4.8,7.5-4.8
			C895.4,864.9,893.6,870.1,897.2,869.3c-0.4,1.3-0.9,2.6-0.9,3.5"/>
	</g>
	<g>
		<defs>
			<rect id="SVGID_49_" x="790" y="701.9" width="612" height="271.1"/>
		</defs>
		<clipPath id="SVGID_50_">
			<use xlink:href="#SVGID_49_"  overflow="visible"/>
		</clipPath>
		<path clip-path="url(#SVGID_50_)" fill="#F5DFE4" d="M812.4,855.6c1.3,0,4-2.2,1.3-2.2C812.4,853.5,809.7,855.6,812.4,855.6"/>
	</g>
	<g>
		<defs>
			<rect id="SVGID_51_" x="790" y="701.9" width="612" height="271.1"/>
		</defs>
		<clipPath id="SVGID_52_">
			<use xlink:href="#SVGID_51_"  overflow="visible"/>
		</clipPath>
		<path clip-path="url(#SVGID_52_)" fill="#F5DFE4" d="M813.2,854.3c-2.2,3.1-8.3-0.9-11.4-0.9c-4.4,0-9.2,2.6-9.2,7.5
			c0,2.6,1.8,4.4,1.8,7c0.4,1.8-0.9,4,0,5.7c1.8,3.5,6.6,4.8,7.5,8.8c-3.5-0.9-9.2-5.7-11.4-0.9c-2.6,6.2,4,10.5,8.8,12.7
			c1.8,0.9,3.5,2.2,4.8,0.4c2.2-2.6-1.3-3.5,2.6-4.4c4-0.9,8.8,4,11.9,2.6c-0.4-0.9-0.4-1.8-0.9-2.6c1.8,1.3,4,1.3,5.7,2.6
			c0.4-3.5-1.8-6.6-3.5-9.7c2.6,2.2,5.7,3.5,7.5,6.6c0.4-4.4-0.9-6.2-3.1-9.7c4,0.9,5.3,4.4,6.6,7.5c0-4.4,0-7.5-2.2-11.9
			c3.5,3.5,4.4,9.7,7,13.6c0-2.2,0.9-4,0.9-6.2c0-2.6,0-5.3,0.4-8.3c0.4-7.5,0.9-11,6.6-16.3c2.6-2.6,4.4-4.4,5.7-7.5
			c1.3-2.6,1.3-6.2,2.6-8.3c0.9-1.3,2.6-1.8,3.5-3.1c0.9-1.3,0-3.5-0.4-4.8c-0.4-3.1-1.3-6.2,2.2-7.5c-5.7-1.3-8.3-5.7-13.6,0
			c-1.8,1.8-2.2,4.4-3.5,6.6c-1.8,3.1-4,4-6.6,5.7c-4,2.2-7,7.9-7.9,12.3c-0.9,4.4,3.1,9.7,2.6,14.9c-2.6-1.3-5.3-3.5-7.9-4.8
			c-1.8-1.3-3.1-2.6-4.8-4.4c-0.9-0.9-2.6-2.6-2.2-2.6"/>
	</g>
	<g>
		<defs>
			<rect id="SVGID_53_" x="790" y="701.9" width="612" height="271.1"/>
		</defs>
		<clipPath id="SVGID_54_">
			<use xlink:href="#SVGID_53_"  overflow="visible"/>
		</clipPath>
		<path clip-path="url(#SVGID_54_)" fill="#F5DFE4" d="M849.3,909.2c2.2,0,3.1-2.6,0.4-2.6C847.5,906.6,846.6,909.2,849.3,909.2"/>
	</g>
	<g>
		<defs>
			<rect id="SVGID_55_" x="790" y="701.9" width="612" height="271.1"/>
		</defs>
		<clipPath id="SVGID_56_">
			<use xlink:href="#SVGID_55_"  overflow="visible"/>
		</clipPath>
		<path clip-path="url(#SVGID_56_)" fill="#F2D3D7" d="M849.3,907.9c-2.2,3.1-3.1,5.7-3.1,9.7c0,3.5,2.2,7.5,0.9,11
			c-1.3,4-7,4.8-7,9.7c0,4,4,6.6,3.5,11c-3.1-2.2-4.4,0-7,0.9c-4.4,1.8-5.7,1.8-9.7,0c-2.6-0.9-0.4-2.2-4-1.8
			c-0.9,0-2.6,2.2-3.5,2.6c-3.5,1.3-5.7,0-7.9-2.6c-2.2-2.6-1.8-5.7-4-8.3c-2.6-2.6-6.6-3.5-9.2-6.2c-5.3-5.7-4.4-13.2,0-18.9
			c1.8-2.2,4.4-3.5,5.3-6.6c0.9-2.6,0-5.3,1.3-7.9c3.5-7.9,9.2-3.1,15.4-1.3c7,1.8,29-0.9,30.8,8.8"/>
	</g>
	<g>
		<defs>
			<rect id="SVGID_57_" x="790" y="701.9" width="612" height="271.1"/>
		</defs>
		<clipPath id="SVGID_58_">
			<use xlink:href="#SVGID_57_"  overflow="visible"/>
		</clipPath>
		<g clip-path="url(#SVGID_58_)">
			<g enable-background="new    ">
				<path fill="#FFFFFF" d="M338.3,1315.5l-50.7-115.7h18.6l37.5,92.5l33.8-92.5h8.5l-45,115.7H338.3z"/>
			</g>
		</g>
	</g>
</g>
<g enable-background="new    ">
	<path fill="#F2D3D7" d="M1055.6,907.1c10.6,0,16,8.1,16,24.2v38.5h-11.4v-39.6c0-7.6-1.4-12.2-4.3-13.8c-1.4-0.8-3.4-1.2-6-1.2
		s-5.3,0.8-8.2,2.4c-2.9,1.6-5.1,3.4-6.4,5.3v46.9h-11.5v-40.3c0-4.8-0.7-8.4-2.2-10.7c-1.4-2.4-3.6-3.6-6.4-3.6
		c-2.8,0-5.5,0.6-8,1.9c-2.6,1.3-4.6,2.5-6.2,3.8c-1.5,1.3-2.3,2-2.3,2.3v46.6h-11.4v-42.5c0-6.1-2.3-11-6.9-14.7l6.9-5.1l10.8,9.9
		c4.2-3.5,7.9-6.1,11.1-7.8c3.2-1.7,6.4-2.5,9.9-2.5c7.8,0,12.7,3.6,14.6,11c3.2-3.6,6.8-6.3,10.8-8.2
		C1048.6,908.1,1052.3,907.1,1055.6,907.1z"/>
	<path fill="#F2D3D7" d="M1130.9,951.9c0,6.4,2.3,11.3,7,14.6l-7,5.1l-11-9.9c-7.1,6.5-13.7,9.7-19.7,9.7c-4,0-7.4-1.3-10.2-3.8
		s-4.3-5.7-4.3-9.5c0-3.8,1.1-7,3.4-9.5c2.3-2.5,5.3-4.5,9.1-5.8c6.5-2.4,13.7-4,21.5-4.6v-12.7c0-7.5-4.3-11.2-13-11.2
		c-5,0-10.8,1.1-17.6,3.2l-1.2-3.4c1.8-1.4,4.9-3,9.4-4.6c4.5-1.6,8.7-2.4,12.8-2.4s7.5,0.5,10.2,1.6c2.7,1.1,4.8,2.3,6.1,3.7
		c1.3,1.4,2.3,3.2,3,5.5c0.7,2.3,1.1,4.2,1.2,5.5c0.1,1.4,0.1,3.2,0.1,5.4V951.9z M1119.8,955.5v-13.9c-6.5,0.5-11.8,1.9-16,4.3
		c-4.1,2.4-6.2,5-6.2,7.8c0,2.8,0.7,5.2,2.2,7.2c1.4,2,3.3,3.4,5.5,4.3c3-0.5,6.1-2,9.5-4.5C1118.1,958.4,1119.8,956.6,1119.8,955.5
		z"/>
	<path fill="#F2D3D7" d="M1162.8,969.9h-11.4v-92.3h11.4v57.2l31.2-26h8.9l-31.8,24.1l33.8,37l-13.5,1.8l-28.7-35.7V969.9z"/>
	<path fill="#F2D3D7" d="M1222.1,936.6c0,9.7,2.2,16.7,6.6,21c4.4,4.3,9.7,6.4,16,6.4c6.3,0,12.1-1.2,17.4-3.7v4.7
		c-7.4,4.2-14.5,6.4-21.2,6.4c-8.7,0-15.8-2.7-21.2-8c-5.4-5.3-8.1-13-8.1-23.1c0-10.1,3-18.2,9-24.2c6-6,13.2-9.1,21.7-9.1
		c6.6,0,12.1,2.6,16.5,7.8c4.4,5.2,6.6,12.4,6.6,21.7H1222.1z M1235.3,913.5c-3.2,1.5-5.9,4-8.1,7.4c-2.3,3.4-3.7,7.3-4.5,11.7h31.6
		c-0.3-3.8-1.1-7-2.6-9.7s-3.3-4.7-5.3-5.9C1242.6,914.6,1238.9,913.5,1235.3,913.5z"/>
	<path fill="#F2D3D7" d="M1325,951.7c0,6.2,2.3,11.1,7,14.7l-7,5l-11-9.9c-3.7,3.5-7,6-9.9,7.6c-2.9,1.5-6.3,2.3-10.2,2.3
		s-7.5-1.5-10.8-4.5c-3.3-3-4.9-8.2-4.9-15.6v-42.6h11.5V952c0,4.3,0.8,7.6,2.4,9.8c1.6,2.2,4.3,3.3,8.2,3.3c3.9,0,8.3-2.9,13.2-8.7
		v-47.7h11.5V951.7z"/>
	<path fill="#F2D3D7" d="M1367.8,909.6c2.8-1.6,5.8-2.4,8.8-2.4c3,0,5.7,0.5,8.1,1.5c2.4,1,4.8,2.6,7.4,4.8
		c2.5,2.2,4.6,5.6,6.2,10.3c1.6,4.6,2.4,9.7,2.4,15.3s-0.9,10.7-2.7,15.5c-1.8,4.8-4.6,8.9-8.5,12.4c-3.9,3.5-8.5,5.3-14,5.3
		c-5.5,0-11.3-2.1-17.5-6.4v32.7h-11.5V927c0-6.2-2.3-11.1-7-14.7l7-5.1l11.5,10.3C1361.7,913.8,1365,911.2,1367.8,909.6z
		 M1357.9,925.6v36.2c12.3,5.9,21.1,4.9,26.2-2.8c2.8-4.4,4.2-10.3,4.2-17.5c0-7.3-1.1-13.5-3.4-18.7c-2.3-5.2-5.2-8.3-8.6-9.4
		c-3.2,0.4-6.2,1.5-9.3,3.4c-3,1.9-5.3,3.7-6.8,5.3C1358.6,923.9,1357.9,925,1357.9,925.6z"/>
</g>
<g>
	<path fill="#FFFFFF" d="M941.6,831.8c-3.2-8-6.6-16.5-10.2-25.4c-3.6-8.9-7.3-18-11.2-27.3c-3.8-9.3-7.5-18.1-10.9-26.4
		c1.4,0.2,2.7,0.4,3.9,0.5c1.3,0.1,2.5,0.2,3.6,0.2s2.4-0.1,3.6-0.2c1.3-0.1,2.6-0.3,3.9-0.5c2.1,6.4,4.5,13.1,7,20.1
		c2.6,7,5.3,14.1,8.1,21.4c2.9,7.2,5.8,14.6,8.8,22c3,7.4,6,14.8,9.1,22.2c1.7-4,3.6-8.4,5.7-13.3c2-4.9,4.1-10,6.2-15.2
		c2.1-5.3,4.1-10.6,6.2-16.1c2-5.5,4-10.7,5.9-15.7c1.9-5,3.6-9.7,5.1-14.1c1.5-4.4,2.8-8.1,3.9-11.3c2.1,0.5,3.9,0.7,5.4,0.7
		s3.2-0.2,5.4-0.7c-7.5,16.8-14.8,33.5-21.8,50s-13.6,33.1-20,49.6c-1.5-0.2-3.1-0.3-4.8-0.3c-1.9,0-3.5,0.1-4.8,0.3
		C947.5,846.7,944.8,839.8,941.6,831.8z"/>
	<path fill="#FFFFFF" d="M1089.8,852.4c-1.4-0.2-2.6-0.3-3.8-0.3c-1.2,0-2.5,0-3.8,0c-1.4,0-2.6,0-3.8,0c-1.2,0-2.5,0.1-3.8,0.3
		c-0.7-2.2-1.6-4.9-2.8-8c-1.2-3.1-2.4-6.4-3.8-9.9c-1.4-3.4-2.8-6.9-4.3-10.4c-1.5-3.5-2.8-6.9-4.1-10.1c-3.1-0.1-6.2-0.2-9.4-0.2
		c-3.2,0-6.4-0.1-9.6-0.1c-3,0-5.9,0-8.8,0.1c-2.9,0-5.9,0.1-8.8,0.2c-3.1,7.5-5.9,14.7-8.4,21.5c-2.5,6.8-4.4,12.4-5.7,16.9
		c-1.6-0.2-3.4-0.3-5.4-0.3c-1.9,0-3.7,0.1-5.4,0.3c7.8-16.9,15.5-33.7,22.9-50.5c7.4-16.7,14.9-33.7,22.5-51h2.8
		c2.3,5.6,4.8,11.7,7.5,18.2c2.7,6.5,5.5,13.1,8.3,19.8c2.8,6.7,5.6,13.3,8.4,19.9c2.8,6.6,5.4,12.7,7.9,18.3s4.7,10.7,6.7,15.2
		C1086.9,846.7,1088.6,850.1,1089.8,852.4z M1025.6,807.3c2.5,0,5.1,0,7.8,0.1c2.7,0.1,5.3,0.1,7.8,0.1c2.7,0,5.4,0,8.1-0.1
		c2.7,0,5.4-0.1,8.1-0.2l-16.1-36.8L1025.6,807.3z"/>
	<path fill="#FFFFFF" d="M1152.6,814.8c-12.6-13.5-25.1-26.9-37.7-40.2c-0.1,2.7-0.2,6.3-0.3,10.9c-0.1,4.5-0.1,10.7-0.1,18.6
		c0,2,0,4.5,0.1,7.5c0,3,0.1,6.1,0.1,9.4c0,3.3,0.1,6.6,0.2,10c0.1,3.4,0.2,6.5,0.3,9.4c0.1,2.9,0.2,5.4,0.3,7.6
		c0.1,2.2,0.2,3.7,0.3,4.4c-1.5-0.2-3.2-0.3-5.1-0.3c-1.9,0-3.7,0.1-5.4,0.3c0.2-1,0.4-2.8,0.7-5.4c0.2-2.6,0.5-5.7,0.7-9.4
		c0.2-3.6,0.4-7.6,0.7-11.8c0.2-4.3,0.4-8.5,0.6-12.8c0.1-4.3,0.3-8.4,0.4-12.5c0.1-4.1,0.1-7.7,0.1-10.9c0-9.3,0-17.3-0.1-23.9
		c0-6.7-0.2-11.6-0.4-14.9h2.3c5.9,6.4,12.2,13.2,18.9,20.5c6.7,7.3,13.4,14.5,20,21.6c6.6,7.1,12.9,13.8,18.9,20.2
		c5.9,6.3,11.1,11.7,15.6,16.2v-19.7c0-10.1-0.1-20-0.2-29.7c-0.1-9.6-0.5-18.7-0.9-27.2c1.9,0.5,3.6,0.7,4.9,0.7
		c1.2,0,2.7-0.2,4.6-0.7c-0.2,2.1-0.4,5.3-0.7,9.6c-0.2,4.3-0.5,8.8-0.7,13.6c-0.2,4.8-0.5,9.6-0.7,14.2c-0.2,4.6-0.3,8.4-0.3,11.2
		c0,2.4,0,5.3,0,8.7c0,3.3,0,6.7,0.1,10.3c0,3.6,0.1,7.2,0.1,10.8c0,3.6,0.1,7,0.1,10.1c0,3.1,0.1,5.9,0.1,8.2c0,2.1,0,3.7,0,4.8h-2
		C1177,841.4,1165.2,828.3,1152.6,814.8z"/>
	<path fill="#FFFFFF" d="M1218.9,771.6c-0.2-6.1-0.5-12.4-0.8-18.8c1.3,0.2,2.5,0.4,3.6,0.5c1.2,0.1,2.3,0.2,3.5,0.2
		s2.3-0.1,3.5-0.2c1.2-0.1,2.4-0.3,3.6-0.5c-0.3,6.4-0.6,12.6-0.8,18.8c-0.2,6.1-0.4,12.4-0.4,18.8v24.9c0,6.4,0.1,12.7,0.4,18.8
		c0.2,6.2,0.5,12.3,0.8,18.3c-2.2-0.2-4.6-0.3-7.1-0.3c-2.5,0-4.9,0.1-7.1,0.3c0.3-6,0.6-12.1,0.8-18.3c0.2-6.2,0.4-12.5,0.4-18.8
		v-24.9C1219.3,784,1219.2,777.7,1218.9,771.6z"/>
	<path fill="#FFFFFF" d="M1279.3,760.3c-2.5,0-5.1,0-7.9,0.1c-2.8,0-5.5,0.1-8.3,0.3c-2.8,0.1-5.4,0.3-8,0.5
		c-2.6,0.2-4.9,0.4-6.9,0.7c0.5-1.7,0.7-3.3,0.7-4.6c0-1.1-0.2-2.6-0.7-4.5c6.4,0.2,12.6,0.4,18.7,0.5c6.1,0.1,12.3,0.2,18.7,0.2
		c6.4,0,12.6-0.1,18.7-0.2c6.1-0.1,12.3-0.3,18.7-0.5c-0.5,1.9-0.7,3.5-0.7,4.6c0,1.3,0.2,2.8,0.7,4.5c-2-0.3-4.3-0.5-6.9-0.7
		c-2.6-0.2-5.2-0.4-8-0.5c-2.8-0.1-5.5-0.2-8.3-0.3c-2.8,0-5.4-0.1-7.9-0.1c-0.3,10-0.4,20-0.4,30v24.9c0,6.4,0.1,12.7,0.4,18.8
		c0.2,6.2,0.5,12.3,0.8,18.3c-2.2-0.2-4.6-0.3-7.1-0.3c-2.5,0-4.9,0.1-7.1,0.3c0.3-6,0.6-12.1,0.8-18.3c0.2-6.2,0.4-12.5,0.4-18.8
		v-24.9C1279.8,780.3,1279.6,770.3,1279.3,760.3z"/>
	<path fill="#FFFFFF" d="M1360.2,804.5c-1.9-3.1-4-6.6-6.2-10.4c-2.3-3.8-4.7-7.8-7.2-12c-2.5-4.2-4.9-8.2-7.2-12
		c-2.3-3.8-4.3-7.2-6.2-10.3c-1.8-3-3.2-5.3-4.2-6.9c1.4,0.2,2.7,0.4,4,0.5c1.3,0.1,2.6,0.2,4,0.2c1.4,0,2.7-0.1,4-0.2
		c1.3-0.1,2.6-0.3,4-0.5c4.4,8.4,8.8,16.7,13.3,24.8s9.3,16.6,14.3,25.4c2.2-3.5,4.5-7.3,7-11.5c2.4-4.2,4.8-8.4,7.2-12.8
		c2.4-4.3,4.7-8.7,7-13.1c2.2-4.4,4.3-8.7,6.2-12.8c2.4,0.5,4.3,0.7,5.7,0.7c1.4,0,3.2-0.2,5.7-0.7c-4.6,7.1-8.8,13.4-12.5,19.1
		c-3.7,5.7-6.9,10.9-9.7,15.5c-2.8,4.6-5.3,8.8-7.4,12.5c-2.1,3.7-4,7.1-5.5,10.1c0,3.6,0,7.4,0.1,11.5c0,4.1,0.1,8,0.2,12
		c0.1,3.9,0.2,7.5,0.4,10.9c0.1,3.3,0.3,6,0.5,8c-2.2-0.2-4.6-0.3-7.1-0.3c-2.5,0-4.9,0.1-7.1,0.3c0.6-5,0.9-11.1,1-18.3
		c0.1-7.2,0.1-14.6,0.1-22.5C1363.5,810,1362,807.6,1360.2,804.5z"/>
</g>
</svg>
