<?xml version="1.0" encoding="utf-8"?>
<!-- Generator: Adobe Illustrator 17.1.0, SVG Export Plug-In . SVG Version: 6.00 Build 0)  -->
<!DOCTYPE svg PUBLIC "-//W3C//DTD SVG 1.1//EN" "http://www.w3.org/Graphics/SVG/1.1/DTD/svg11.dtd">
<svg version="1.1" id="Layer_1" xmlns="http://www.w3.org/2000/svg" xmlns:xlink="http://www.w3.org/1999/xlink" x="0px" y="0px"
	 viewBox="677.8 332.9 139.3 61.7" enable-background="new 677.8 332.9 139.3 61.7" xml:space="preserve">
<g>
	<g>
		<defs>
			<rect id="SVGID_1_" x="677.8" y="332.9" width="139.3" height="61.7"/>
		</defs>
		<clipPath id="SVGID_2_">
			<use xlink:href="#SVGID_1_"  overflow="visible"/>
		</clipPath>
		<path clip-path="url(#SVGID_2_)" fill="#EEC8CF" d="M688.7,369.5c-0.7-1.2-2.1-2-3.4-2.3c-1-0.3-1.2,0.1-2,0.4
			c-0.8,0.2-1.5,0.2-2.4,0.2c-0.7,0-1.4-0.1-2,0.4c-1.5,1.1-0.1,1.7,0.2,2.7c0.4,1.4-1.7,2.5-1.1,4.2c0.7,1.8,3.4,1.7,3.9,3.4
			c0.5,1.7-2.1,2.5-2.5,4c-0.2,0.6-0.1,1.7,0.1,2.2c0.3,1.3,0.7,1,1.7,1.4c1.8,0.8,0.6,2.7,2.9,3.2c0.5,0.1,0.8,0,1.1-0.1
			c0.2-0.1,0.4-0.1,0.7-0.1c0.4,0,1,0.2,1.5,0.3c0.3,0,0.7-0.1,1.1-0.2c0.4-0.1,0.7-0.2,1-0.2c1.3,0.2,0.2,0.1,0.2,1
			c0,1.1,0.6,2.2,2,2.7c1,0.3,2.2,0.1,3.1,0.3c1.4,0.2,2.6,0.4,4,0.2c1.1-0.1,2.6,0.1,3.6-0.5c0.3-0.2,0.4-0.7,0.8-0.9
			c0.2-0.1,0.6-0.1,0.7-0.2c0.1-0.1,0.2,0,0.3,0c0.2,0,0.3,0.1,0.5-0.1c0.4-0.5-0.3-0.6-0.3-1c0-1.3,0-1.7-1-2.8c2,0,5,0.5,5.7-1.8
			c0.5-1.6-0.4-1.5-1.3-2.3c-0.9-0.8-1.7-1.5-2.6-2.3c-1.4-1.3-2.2-3-3.2-4.5c-1.5-2.3-3.8-4.3-6.3-5.5c-2.5-1.2-5.1-1.8-7.6-2.2
			L688.7,369.5z"/>
	</g>
	<g>
		<defs>
			<rect id="SVGID_3_" x="677.8" y="332.9" width="139.3" height="61.7"/>
		</defs>
		<clipPath id="SVGID_4_">
			<use xlink:href="#SVGID_3_"  overflow="visible"/>
		</clipPath>
		<path clip-path="url(#SVGID_4_)" fill="#EEC8CF" d="M694.6,381c-1.6,1.8-4.1-2.7-4.2-4c-1.3-0.1-2.1-0.7-2.6-1.9
			c-0.6-1.4,0.2-2.5,0-3.8c-0.1-1.1-1.5-1.8-1.7-3.2c-0.2-1.4,0.1-2.5,1.3-3.3c0.4-0.3,0.9-0.3,1.3-0.7c0.6-0.5,0.6-1.3,1-1.9
			c0.4-0.6,1.3-1.5,2.1-1.5c0.9-0.1,1.2,0.7,1.9,0.8c0.5,0,0.8,0,1.2-0.1c0.7-0.1,1.3-0.2,2.1,0.2c1.1,0.6,2.2,1.1,2.8,2.5
			c1-0.4,1.7-0.3,2.6,0.4c0.5-1.4,1.4-0.6,2.1,0.1c0,0,0.6,0.6,0.7,0.6c0.2,0.1,0.8,0.2,1,0.4c0.5,0.3,0.7,0.8,1.1,1.1
			c0.3,0.3,1.2,0.4,1.4,0.6c0.2,0.2,0.2,0.7,0.4,0.9c0.3,0.3,0.7,0.4,1,0.7c1.1,1,1.5,2.7,1.4,4.2c-0.1,1.1-1,4.2,1,4.1
			c-0.1,0.2-0.1,0.7-0.2,1c2.2,0.5-1.3,3.8-2.2,4.2c-2.1,0.9-3.5,1.6-5.9,1.5c-1.7-0.1-3.4,0-4.9-0.8c-0.9-0.5-4.9-1.8-4.8-2.6
			L694.6,381z"/>
	</g>
	<g>
		<defs>
			<rect id="SVGID_5_" x="677.8" y="332.9" width="139.3" height="61.7"/>
		</defs>
		<clipPath id="SVGID_6_">
			<use xlink:href="#SVGID_5_"  overflow="visible"/>
		</clipPath>
		<path clip-path="url(#SVGID_6_)" fill="#A51D36" d="M695.5,369.3c0.3,1.1,0.1,2.5-0.6,3.4c0.8,0.7,2,1.1,2.5,2.3
			c0.2,0.5,0.1,1.2,0.4,1.7c0.3,0.6,0.9,0.8,1.2,1.4c0.6,1.3-0.1,1.9,1.2,2.3c1.2,0.4,2.3,0.4,3.4,1c0.5-0.8,2.3-1.9,1.6-2.9
			c-0.6-0.9-2.1-0.4-2-2.2c0.1-0.9,0.8-1.2,1-1.9c0.4-1.2,0-0.7-0.7-1.2c-0.1,0-0.2,0-0.2,0.1c-0.1,0.1-0.3,0.2-0.4,0
			c-0.3-0.3,0.1-0.7,0-1c-0.1-0.7,0.1-1.3-0.3-1.9c-0.1,0.1-0.4,0.1-0.5,0.2c-1-1.7-1.3-0.4-2.4,0.4c-1.1,0.7-2.4,0.4-1.9-1.1
			c-0.6,1.5-1.9,0.9-2-0.3L695.5,369.3z"/>
	</g>
	<g>
		<defs>
			<rect id="SVGID_7_" x="677.8" y="332.9" width="139.3" height="61.7"/>
		</defs>
		<clipPath id="SVGID_8_">
			<use xlink:href="#SVGID_7_"  overflow="visible"/>
		</clipPath>
		<path clip-path="url(#SVGID_8_)" fill="#EEC8CF" d="M695.1,369.4c0.3,1.2,0.1,2.3-0.6,3.3c-0.1,0.1,0,0.2,0.1,0.3
			c1.2,0.9,2.4,1.4,2.6,3c0.2,1.3,1.3,1.7,1.6,2.9c0.2,0.7,0,1.2,0.7,1.6c1.1,0.7,2.7,0.6,3.9,1.1c0.2,0.1,0.5-0.1,0.7-0.2
			c0.6-0.9,2.2-1.8,1.7-3c-0.2-0.4-0.6-0.6-1-0.7c-1.4-0.5-1.1-1.6-0.4-2.6c0.4-0.6,0.9-1.6-0.1-1.9c-0.4-0.1-0.6-0.4-1.1-0.1
			c0.5-0.3,0-2.4-0.1-2.8c-0.1-0.2-0.4-0.2-0.6-0.1c-0.2,0.1-0.3,0.2-0.5,0.2c0.2,0,0.4,0,0.6,0c-0.4-0.6-0.8-1.1-1.5-0.9
			c-0.3,0.1-0.5,0.3-0.7,0.4c-0.3,0.3-0.6,0.6-0.9,0.8c-1.3,1-1.3-0.3-1.2-1c0.1-0.4-0.7-0.2-0.8,0c-0.6,1.3-1.1,0-1.2-0.4
			c-0.1-0.3-0.9-0.1-0.9,0.2c0.4,1.7,2.1,1.7,2.9,0.2c-0.3,0-0.6,0-0.8,0c-0.2,0.9,0,1.8,1.1,1.7c0.6,0,1-0.2,1.5-0.5
			c0.8-0.4,1-1.5,1.8-0.4c0.1,0.2,0.4,0.1,0.6,0c0.2-0.1,0.3-0.1,0.5-0.2c-0.2,0-0.4-0.1-0.6-0.1c0.3,0.5,0.2,0.7,0.3,1.4
			c0-0.2-0.1,1.1-0.1,1.2c0.1,0.4,0.2,0.6,0.7,0.6c0.1,0,0.2,0,0.3,0c0.2,0,0.3,0,0.5,0.1c0.7,0.3-0.4,1.5-0.7,1.9
			c-0.6,0.8-0.3,1.9,0.6,2.4c0.7,0.4,1.7,0.5,1.1,1.6c-0.4,0.7-1.1,1.2-1.5,1.8c0.2-0.1,0.4-0.2,0.7-0.2c-1.1-0.4-4-0.5-4.2-1.9
			c-0.1-0.4-0.1-0.9-0.3-1.3c-0.5-0.8-1.2-1.2-1.3-2.2c-0.2-1.4-1.1-2.1-2.2-2.8c-0.6-0.4-0.1-0.9,0.1-1.4c0.3-0.7,0.2-1.6,0-2.3
			C695.8,368.9,695,369.1,695.1,369.4"/>
	</g>
	<g>
		<defs>
			<rect id="SVGID_9_" x="677.8" y="332.9" width="139.3" height="61.7"/>
		</defs>
		<clipPath id="SVGID_10_">
			<use xlink:href="#SVGID_9_"  overflow="visible"/>
		</clipPath>
		<path clip-path="url(#SVGID_10_)" fill="#F7AEBE" d="M686,367.5c0.4,0.9,0.8,2.3,0.6,3.3c-0.7-0.6-1.3-1.1-2.2-1.6
			c-0.7-0.4-1.2-0.7-1.6-1.4c0.6-0.1,1-0.5,1.6-0.5C685,367.2,685.5,367.4,686,367.5C686,367.6,686.1,367.5,686,367.5"/>
	</g>
	<g>
		<defs>
			<rect id="SVGID_11_" x="677.8" y="332.9" width="139.3" height="61.7"/>
		</defs>
		<clipPath id="SVGID_12_">
			<use xlink:href="#SVGID_11_"  overflow="visible"/>
		</clipPath>
		<path clip-path="url(#SVGID_12_)" fill="#F7AEBE" d="M679,372.1c0.6,0.6,1.1,1.5,1.7,2.2c-0.8-0.3-1.6-0.8-2.4-1
			c0.2-0.4,0.7-0.8,0.9-1.1"/>
	</g>
	<g>
		<defs>
			<rect id="SVGID_13_" x="677.8" y="332.9" width="139.3" height="61.7"/>
		</defs>
		<clipPath id="SVGID_14_">
			<use xlink:href="#SVGID_13_"  overflow="visible"/>
		</clipPath>
		<path clip-path="url(#SVGID_14_)" fill="#F5DFE4" d="M695.4,368.4c0,0.7,0,4.9-1.6,3.8c-1.2-0.8,1.3-3.2,1.7-3.9"/>
	</g>
	<g>
		<defs>
			<rect id="SVGID_15_" x="677.8" y="332.9" width="139.3" height="61.7"/>
		</defs>
		<clipPath id="SVGID_16_">
			<use xlink:href="#SVGID_15_"  overflow="visible"/>
		</clipPath>
		<path clip-path="url(#SVGID_16_)" fill="#F5DFE4" d="M696.3,368.6c0.2-0.4,0.5-0.6,0.9-0.5c0.2,0.8-0.8,1.2-1,0.6"/>
	</g>
	<g>
		<defs>
			<rect id="SVGID_17_" x="677.8" y="332.9" width="139.3" height="61.7"/>
		</defs>
		<clipPath id="SVGID_18_">
			<use xlink:href="#SVGID_17_"  overflow="visible"/>
		</clipPath>
		<path clip-path="url(#SVGID_18_)" fill="#F27497" d="M696,361.9c0.2,0,1-0.3,0.6-0.3C696.4,361.6,695.6,361.9,696,361.9"/>
	</g>
	<g>
		<defs>
			<rect id="SVGID_19_" x="677.8" y="332.9" width="139.3" height="61.7"/>
		</defs>
		<clipPath id="SVGID_20_">
			<use xlink:href="#SVGID_19_"  overflow="visible"/>
		</clipPath>
		<path clip-path="url(#SVGID_20_)" fill="#F5DBE0" d="M696.1,381.7c0.1,0.1,0.3,0.3,0.5,0.3c0,0,0.1,0,0.1-0.1
			C696.6,381.9,696.3,381.8,696.1,381.7"/>
	</g>
	<g>
		<defs>
			<rect id="SVGID_21_" x="677.8" y="332.9" width="139.3" height="61.7"/>
		</defs>
		<clipPath id="SVGID_22_">
			<use xlink:href="#SVGID_21_"  overflow="visible"/>
		</clipPath>
		<path clip-path="url(#SVGID_22_)" fill="#F5DBE0" d="M695.5,361.3c-0.5,0-1.1,0.3-1.7,0.3c-0.6,1.4,0.7,2.7,1,4
			c-0.3-0.5-0.5-0.6-0.8-0.6c-0.7,0-1.1,1.6-1.6,2.1c-0.9,1.2-2.2,1.8-2.7,3.4c-0.8,2.4,0.4,5.3,3,5.6c-0.1,1.7,1.3,2.1,2.2,3.3
			c0.5,0.7,0.5,1.8,1.1,2.4c0.2,0.1,0.4,0.2,0.6,0.3c1.1-0.7,0.4-1.6,1.1-2.5c0.3,0.3,0.5,0.4,0.6,0.4c0.2,0,0.3-0.2,0.4-0.5
			c0-0.2-0.1-0.4-0.1-0.6c-0.3-1.2-1.5-1.7-1.6-2.9c-0.2-1.3-1-1.9-2-2.5c-0.1,0-0.2,0-0.3,0c-0.1,0-0.2,0-0.4,0
			c-0.5,0-0.9-0.1-1.3-0.5c-1.3-1.4,0.6-4.3,1.5-5.5c0.6-0.8,1.8-1.9,2.1-2.8c0.3-1-0.4-1.9-0.5-2.9c-0.1,0-0.2,0.1-0.3,0.1
			c-0.3,0,0-0.1,0.2-0.2C696,361.4,695.7,361.3,695.5,361.3"/>
	</g>
	<g>
		<defs>
			<rect id="SVGID_23_" x="677.8" y="332.9" width="139.3" height="61.7"/>
		</defs>
		<clipPath id="SVGID_24_">
			<use xlink:href="#SVGID_23_"  overflow="visible"/>
		</clipPath>
		<path clip-path="url(#SVGID_24_)" fill="#F5DBE0" d="M695.3,373.5C695.2,373.5,695.2,373.5,695.3,373.5c0.9,0.6,1.7,1.2,1.9,2.5
			c0.2,1.3,1.3,1.7,1.6,2.9c0.1,0.2,0.1,0.4,0.1,0.6c0.1-0.3,0.1-0.7,0-1c-0.2-1.1-0.7-1.5-1.2-2.5c-0.5-1-0.6-2-1.8-2.4
			C695.7,373.5,695.5,373.5,695.3,373.5"/>
	</g>
	<g>
		<defs>
			<rect id="SVGID_25_" x="677.8" y="332.9" width="139.3" height="61.7"/>
		</defs>
		<clipPath id="SVGID_26_">
			<use xlink:href="#SVGID_25_"  overflow="visible"/>
		</clipPath>
		<path clip-path="url(#SVGID_26_)" fill="#F5DBE0" d="M696.4,361.8C696.4,361.8,696.3,361.8,696.4,361.8L696.4,361.8
			C696.4,361.8,696.4,361.8,696.4,361.8"/>
	</g>
	<g>
		<defs>
			<rect id="SVGID_27_" x="677.8" y="332.9" width="139.3" height="61.7"/>
		</defs>
		<clipPath id="SVGID_28_">
			<use xlink:href="#SVGID_27_"  overflow="visible"/>
		</clipPath>
		<path clip-path="url(#SVGID_28_)" fill="#F4D2D8" d="M696.2,361.6c-0.3,0.1-0.5,0.2-0.2,0.2c0.1,0,0.2,0,0.3-0.1
			C696.3,361.8,696.3,361.7,696.2,361.6l0.1,0.1c0,0,0,0,0,0C696.3,361.7,696.3,361.7,696.2,361.6"/>
	</g>
	<g>
		<defs>
			<rect id="SVGID_29_" x="677.8" y="332.9" width="139.3" height="61.7"/>
		</defs>
		<clipPath id="SVGID_30_">
			<use xlink:href="#SVGID_29_"  overflow="visible"/>
		</clipPath>
		<path clip-path="url(#SVGID_30_)" fill="#F5DFE4" d="M690.8,375.4c-1,0-1.1-1.1-1.8-1.5c-0.4,1,0.5,2.3,1.1,3
			c0.8,0.9,1.9,2.3,2.9,3c0.5-1.1,0.1-1.7-0.5-2.6c-0.4-0.6-1.9-1.9-1.8-2.4"/>
	</g>
	<g>
		<defs>
			<rect id="SVGID_31_" x="677.8" y="332.9" width="139.3" height="61.7"/>
		</defs>
		<clipPath id="SVGID_32_">
			<use xlink:href="#SVGID_31_"  overflow="visible"/>
		</clipPath>
		<path clip-path="url(#SVGID_32_)" fill="#EF9BAC" d="M687.5,373c1.2,1.5,0.9,3.6,2.6,4.9c-1.3-0.6-2.7-0.4-4.1-0.6
			c-1.8-0.2-2.9-0.8-4.4-1.7c1.1,0,1.9,0.4,3,0.7c-0.1-0.2-0.3-0.5-0.4-0.7c0.5,0.2,1,0.6,1.6,0.7c-0.2-0.8-0.6-1.7-1-2.4
			c0.6,0.5,1.1,1.1,1.7,1.6c0-0.8-0.5-1.7-1-2.4c0.7,0.6,1.4,1.2,1.9,2c0.3-1-0.2-2.2-0.5-3.2c0.4,0.7,0.9,1.4,1.3,2"/>
	</g>
	<g>
		<defs>
			<rect id="SVGID_33_" x="677.8" y="332.9" width="139.3" height="61.7"/>
		</defs>
		<clipPath id="SVGID_34_">
			<use xlink:href="#SVGID_33_"  overflow="visible"/>
		</clipPath>
		<path clip-path="url(#SVGID_34_)" fill="#F27497" d="M707.6,383.4c-0.8,0.5-1,0.7-1.9,0.5c-0.3-0.1-0.7-0.5-1.1-0.5
			c-0.7,0-1.1,0.5-1.7,0.8c-1.8,0.7-3.4,0-5.1-0.7c1,0.7,3,2.4,2.4,3.7c-0.3,0.9-1.2,0.4-0.8,1.6c0.3,0.9,1.5,0.9,2.1,1.4
			c0.8,0.7,1.6,2.7,3.2,1.4c0.9-0.8-0.3-2.7-0.6-3.8c1.6,0.9,4.1,1.4,5.3-0.6c0.3-0.5,0.9-2.2,0.6-2.8c-0.3-0.6-0.8-0.5-1.3-0.7
			c-0.3-0.1-1.4-0.2-0.8-0.4"/>
	</g>
	<g>
		<defs>
			<rect id="SVGID_35_" x="677.8" y="332.9" width="139.3" height="61.7"/>
		</defs>
		<clipPath id="SVGID_36_">
			<use xlink:href="#SVGID_35_"  overflow="visible"/>
		</clipPath>
		<path clip-path="url(#SVGID_36_)" fill="#F27497" d="M708,366.7c-0.7,0.5-2,1.5-2.5,2.2c1.1,0.6,2.8,0.2,3.8-0.4
			c-0.5-0.6-0.6-1.8-1.4-1.9"/>
	</g>
	<g>
		<defs>
			<rect id="SVGID_37_" x="677.8" y="332.9" width="139.3" height="61.7"/>
		</defs>
		<clipPath id="SVGID_38_">
			<use xlink:href="#SVGID_37_"  overflow="visible"/>
		</clipPath>
		<path clip-path="url(#SVGID_38_)" fill="#F27497" d="M711.6,374.7c-2.3,0.1,0.5,2.4,1.4,2.7c-0.1,0.2-0.2,0.5-0.4,0.7
			c1.7,1.2-3.1,6-5.2,5.2c0.3-0.8,0.5-1.7,0.9-2.5c0.3-0.7,1.1-1.4,1.3-2.2c0.2-0.8-0.5-1.5-0.2-2.3c0.3-0.8,1.4-1.6,2.2-1.3"/>
	</g>
	<g>
		<defs>
			<rect id="SVGID_39_" x="677.8" y="332.9" width="139.3" height="61.7"/>
		</defs>
		<clipPath id="SVGID_40_">
			<use xlink:href="#SVGID_39_"  overflow="visible"/>
		</clipPath>
		<path clip-path="url(#SVGID_40_)" fill="#EF9BAC" d="M706.9,371.9c0.6,1.7,1.7,1.7,0.7,3.6c0.7,0.3,1.3,1,1.4,1.9
			c0.7,0.1,1.3,0.4,1.8,0.8c0.2-0.6,0.5-1.1,0.9-1.5c0.1,0,0.2,0.1,0.3,0.2c-0.2-1.9,0.4-4.8-1.1-6.2c-1.1,0.8-2.5,1-3.9,1.3"/>
	</g>
	<g>
		<defs>
			<rect id="SVGID_41_" x="677.8" y="332.9" width="139.3" height="61.7"/>
		</defs>
		<clipPath id="SVGID_42_">
			<use xlink:href="#SVGID_41_"  overflow="visible"/>
		</clipPath>
		<path clip-path="url(#SVGID_42_)" fill="#EF9BAC" d="M691.3,382.7c-0.2,0.7-0.4,1.2-0.9,1.8c-0.6,0.6-1.2,0.8-1.2,1.8
			c0.1,0.9,1,1.2,1.1,2.1c0.1,0.8-0.6,1.4-0.7,2.3c-0.4,4.1,5.1,3.4,7.8,3.8c2,0.3,3.6,0.2,5-1.3c1.2-1.3,1.1-2.8-0.4-3.9
			c-0.5-0.4-1.6-0.4-1.7-1.2c-0.1-0.5,0.6-1.4,0.6-2.1c-0.2-1.4-1.7-2.2-2.9-2.6c-1.1-0.4-2-0.1-3.2-0.1c-2-0.1-2.5-1.7-4-2.6
			c0.4,0.8,0.2,1.8,0.5,2.6"/>
	</g>
	<g>
		<defs>
			<rect id="SVGID_43_" x="677.8" y="332.9" width="139.3" height="61.7"/>
		</defs>
		<clipPath id="SVGID_44_">
			<use xlink:href="#SVGID_43_"  overflow="visible"/>
		</clipPath>
		<path clip-path="url(#SVGID_44_)" fill="#F8BACA" d="M688.6,373.9c-0.2,1.3,0.6,2.4,1.3,3.4c0.8,0.9,1.7,2.3,2.8,2.9
			c0.1,0.1,0.6-0.1,0.5-0.2c-0.9-0.5-1.5-1.5-2.3-2.3c-1-1-2.1-2.4-1.8-3.9C689.2,373.6,688.7,373.7,688.6,373.9"/>
	</g>
	<g>
		<defs>
			<rect id="SVGID_45_" x="677.8" y="332.9" width="139.3" height="61.7"/>
		</defs>
		<clipPath id="SVGID_46_">
			<use xlink:href="#SVGID_45_"  overflow="visible"/>
		</clipPath>
		<path clip-path="url(#SVGID_46_)" fill="#F27497" d="M692.6,376.2c0.1,0,0.6-0.2,0.3-0.2C692.8,376,692.4,376.2,692.6,376.2"/>
	</g>
	<g>
		<defs>
			<rect id="SVGID_47_" x="677.8" y="332.9" width="139.3" height="61.7"/>
		</defs>
		<clipPath id="SVGID_48_">
			<use xlink:href="#SVGID_47_"  overflow="visible"/>
		</clipPath>
		<path clip-path="url(#SVGID_48_)" fill="#F8BACA" d="M693.1,365c-0.4,1.1-1.4,2.4-2.1,3.2c-0.7,0.9-1.6,1.4-2,2.4
			c-0.4,1-0.3,2.2,0.1,3.2c0.6,1.3,1.8,1.7,2.9,2.3c0.4,0.2,0.6,1.1,0.8,1.5c0.2,0.4,0.7,0.7,1,1.1c0.7,0.8,1,1.7,1.6,2.6
			c0.5,0.9,1.4,1.1,2.1,0.3c0.2-0.2-0.6-0.1-0.8,0.1c0,0-1.6-2.7-1.8-3c-0.6-0.8-1.3-1.4-1.7-2.4c-0.3-0.8-1.3-1-2-1.4
			c-2.1-1.3-1.9-4.3-0.4-5.9c1.2-1.2,2.6-2.6,3.1-4.2C694.1,364.7,693.2,364.8,693.1,365"/>
	</g>
	<g>
		<defs>
			<rect id="SVGID_49_" x="677.8" y="332.9" width="139.3" height="61.7"/>
		</defs>
		<clipPath id="SVGID_50_">
			<use xlink:href="#SVGID_49_"  overflow="visible"/>
		</clipPath>
		<path clip-path="url(#SVGID_50_)" fill="#F8BACA" d="M702.2,371c0.2,0.7-0.4,2.4,0.4,2.7c0.4,0.1,1.2-0.5,1.2,0.3
			c0,0.4-0.7,1-0.8,1.5c-0.1,0.4,0,0.9,0,1.3c0.2,0.8,0.6,1,1.2,1.5c0.7,0.7,0,1.9-0.6,2.6c1.3,0.6,2.4,3.4,4.4,2.5
			c-1.1-2,1.9-3.4,2-5.3c0-0.9-0.6-1-1-1.6c-0.2-0.3-0.2-0.7-0.3-0.9c-0.1-0.3-0.5-0.5-0.6-0.7c-0.3-0.6,0-1,0-1.6
			c0-0.6-0.3-1.3-0.5-1.8c0.6-0.1,1.2,0,1.9-0.2c0.6-0.2,1.1-0.5,1.7-0.6c0.1-0.7-0.4-1.3-0.8-1.8c-0.5-0.6-0.7-0.6-1.4-0.3
			c-1.1,0.3-2.3,0.5-3.4,0.2c0.6-0.5,2-0.6,2.2-1.6c0.2-0.6-0.2-0.5-0.6-0.8c-0.5-0.3-0.6-0.9-1.1-1.2c-0.4-0.3-0.8-0.3-1.2-0.8
			c-0.4-0.4-0.6-0.8-1.1-1c-1-0.5-1.5,0.4-1.8,1.2c-0.3,0.6-0.8,2.1-1.6,2.3c-0.3,0.1-0.7-0.3-1.1-0.2c-0.4,0.1-0.6,0.7-0.7,1.1
			c-0.1,0.4,0.1,0.8,0.1,1.1c-0.1,0.6-0.7,0.8-0.8,1.3c-0.4,1.2,1,1.2,1.7,0.8c0.4-0.2,1.3-1.1,1.7-1.1
			C701.8,370,701.4,371.2,702.2,371c-0.1,0.3-0.2,0.6-0.2,0.8"/>
	</g>
	<g>
		<defs>
			<rect id="SVGID_51_" x="677.8" y="332.9" width="139.3" height="61.7"/>
		</defs>
		<clipPath id="SVGID_52_">
			<use xlink:href="#SVGID_51_"  overflow="visible"/>
		</clipPath>
		<path clip-path="url(#SVGID_52_)" fill="#F5DFE4" d="M682.9,367.9c0.3,0,0.9-0.5,0.3-0.5C682.9,367.4,682.3,367.9,682.9,367.9"/>
	</g>
	<g>
		<defs>
			<rect id="SVGID_53_" x="677.8" y="332.9" width="139.3" height="61.7"/>
		</defs>
		<clipPath id="SVGID_54_">
			<use xlink:href="#SVGID_53_"  overflow="visible"/>
		</clipPath>
		<path clip-path="url(#SVGID_54_)" fill="#F5DFE4" d="M683.1,367.6c-0.5,0.7-1.9-0.2-2.6-0.2c-1,0-2.1,0.6-2.1,1.7
			c0,0.6,0.4,1,0.4,1.6c0.1,0.4-0.2,0.9,0,1.3c0.4,0.8,1.5,1.1,1.7,2c-0.8-0.2-2.1-1.3-2.6-0.2c-0.6,1.4,0.9,2.4,2,2.9
			c0.4,0.2,0.8,0.5,1.1,0.1c0.5-0.6-0.3-0.8,0.6-1c0.9-0.2,2,0.9,2.7,0.6c-0.1-0.2-0.1-0.4-0.2-0.6c0.4,0.3,0.9,0.3,1.3,0.6
			c0.1-0.8-0.4-1.5-0.8-2.2c0.6,0.5,1.3,0.8,1.7,1.5c0.1-1-0.2-1.4-0.7-2.2c0.9,0.2,1.2,1,1.5,1.7c0-1,0-1.7-0.5-2.7
			c0.8,0.8,1,2.2,1.6,3.1c0-0.5,0.2-0.9,0.2-1.4c0-0.6,0-1.2,0.1-1.9c0.1-1.7,0.2-2.5,1.5-3.7c0.6-0.6,1-1,1.3-1.7
			c0.3-0.6,0.3-1.4,0.6-1.9c0.2-0.3,0.6-0.4,0.8-0.7c0.2-0.3,0-0.8-0.1-1.1c-0.1-0.7-0.3-1.4,0.5-1.7c-1.3-0.3-1.9-1.3-3.1,0
			c-0.4,0.4-0.5,1-0.8,1.5c-0.4,0.7-0.9,0.9-1.5,1.3c-0.9,0.5-1.6,1.8-1.8,2.8c-0.2,1,0.7,2.2,0.6,3.4c-0.6-0.3-1.2-0.8-1.8-1.1
			c-0.4-0.3-0.7-0.6-1.1-1c-0.2-0.2-0.6-0.6-0.5-0.6"/>
	</g>
	<g>
		<defs>
			<rect id="SVGID_55_" x="677.8" y="332.9" width="139.3" height="61.7"/>
		</defs>
		<clipPath id="SVGID_56_">
			<use xlink:href="#SVGID_55_"  overflow="visible"/>
		</clipPath>
		<path clip-path="url(#SVGID_56_)" fill="#F5DFE4" d="M691.3,380.1c0.5,0,0.7-0.6,0.1-0.6C690.9,379.5,690.7,380.1,691.3,380.1"/>
	</g>
	<g>
		<defs>
			<rect id="SVGID_57_" x="677.8" y="332.9" width="139.3" height="61.7"/>
		</defs>
		<clipPath id="SVGID_58_">
			<use xlink:href="#SVGID_57_"  overflow="visible"/>
		</clipPath>
		<path clip-path="url(#SVGID_58_)" fill="#F2D3D7" d="M691.3,379.8c-0.5,0.7-0.7,1.3-0.7,2.2c0,0.8,0.5,1.7,0.2,2.5
			c-0.3,0.9-1.6,1.1-1.6,2.2c0,0.9,0.9,1.5,0.8,2.5c-0.7-0.5-1,0-1.6,0.2c-1,0.4-1.3,0.4-2.2,0c-0.6-0.2-0.1-0.5-0.9-0.4
			c-0.2,0-0.6,0.5-0.8,0.6c-0.8,0.3-1.3,0-1.8-0.6c-0.5-0.6-0.4-1.3-0.9-1.9c-0.6-0.6-1.5-0.8-2.1-1.4c-1.2-1.3-1-3,0-4.3
			c0.4-0.5,1-0.8,1.2-1.5c0.2-0.6,0-1.2,0.3-1.8c0.8-1.8,2.1-0.7,3.5-0.3c1.6,0.4,6.6-0.2,7,2"/>
	</g>
	<g>
		<defs>
			<rect id="SVGID_59_" x="677.8" y="332.9" width="139.3" height="61.7"/>
		</defs>
		<clipPath id="SVGID_60_">
			<use xlink:href="#SVGID_59_"  overflow="visible"/>
		</clipPath>
		<g clip-path="url(#SVGID_60_)">
			<text transform="matrix(1 0 0 1 691.7613 359.2153)" fill="#FFFFFF" font-family="'Belleza-Regular'" font-size="38.8379">V</text>
		</g>
	</g>
	<g>
		<defs>
			<rect id="SVGID_61_" x="677.8" y="332.9" width="139.3" height="61.7"/>
		</defs>
		<clipPath id="SVGID_62_">
			<use xlink:href="#SVGID_61_"  overflow="visible"/>
		</clipPath>
		<g clip-path="url(#SVGID_62_)">
			<text transform="matrix(1 0 0 1 714.0151 359.2153)" fill="#FFFFFF" font-family="'Belleza-Regular'" font-size="38.8379">ANITY</text>
		</g>
	</g>
</g>
<text transform="matrix(1 0 0 1 715.5992 384.7324)" fill="#F2D3D7" font-family="'Belleza-Regular'" font-size="30.7716">makeup</text>
</svg>
