<?xml version="1.0" encoding="utf-8"?>
<!-- Generator: Adobe Illustrator 17.1.0, SVG Export Plug-In . SVG Version: 6.00 Build 0)  -->
<!DOCTYPE svg PUBLIC "-//W3C//DTD SVG 1.1//EN" "http://www.w3.org/Graphics/SVG/1.1/DTD/svg11.dtd">
<svg version="1.1" id="Layer_1" xmlns="http://www.w3.org/2000/svg" xmlns:xlink="http://www.w3.org/1999/xlink" x="0px" y="0px"
	 viewBox="0 0 32.2 25.8" enable-background="new 0 0 32.2 25.8" xml:space="preserve">
<g>
	<defs>
		<rect id="SVGID_1_" x="0" y="0" width="32.2" height="25.8"/>
	</defs>
	<clipPath id="SVGID_2_">
		<use xlink:href="#SVGID_1_"  overflow="visible"/>
	</clipPath>
	<path clip-path="url(#SVGID_2_)" fill="#FFFFFF" d="M16.4,8.1c0,0-8.2,0.1-12.6-6.6c0,0-2.8,4.7,1.8,8.4c0,0-2.1,0-2.7-0.8
		c0,0-0.2,4.8,4.8,6.3c0,0-1.6,0.6-2.5,0c0,0,0.9,4.3,5.6,4.5c0,0-3.8,3.5-8.7,2.7c0,0,7.9,5.8,17.8,0.6c0,0,9.9-5.4,8.8-16.4
		c0,0,3.1-2.6,3.1-3.3c0,0-2.5,1-3.3,0.8c0,0,2.5-2.2,2.4-3.4c0,0-3,1.6-3.8,1.4c0,0-4.3-4.1-8.9-0.1C18.2,2.2,15.7,4.2,16.4,8.1"/>
	<path clip-path="url(#SVGID_2_)" fill="none" stroke="#000000" stroke-miterlimit="10" d="M16.4,8.1c0,0-8.2,0.1-12.6-6.6
		c0,0-2.8,4.7,1.8,8.4c0,0-2.1,0-2.7-0.8c0,0-0.2,4.8,4.8,6.3c0,0-1.6,0.6-2.5,0c0,0,0.9,4.3,5.6,4.5c0,0-3.8,3.5-8.7,2.7
		c0,0,7.9,5.8,17.8,0.6c0,0,9.9-5.4,8.8-16.4c0,0,3.1-2.6,3.1-3.3c0,0-2.5,1-3.3,0.8c0,0,2.5-2.2,2.4-3.4c0,0-3,1.6-3.8,1.4
		c0,0-4.3-4.1-8.9-0.1C18.2,2.2,15.7,4.2,16.4,8.1z"/>
</g>
</svg>
